<?xml version="1.0" encoding="utf-8"?>
<!-- Generator: Adobe Illustrator 14.0.0, SVG Export Plug-In . SVG Version: 6.00 Build 43363)  -->
<!DOCTYPE svg PUBLIC "-//W3C//DTD SVG 1.1//EN" "http://www.w3.org/Graphics/SVG/1.1/DTD/svg11.dtd">
<svg version="1.1" id="Layer_1" xmlns="http://www.w3.org/2000/svg" xmlns:xlink="http://www.w3.org/1999/xlink" x="0px" y="0px"
	 width="115px" height="115px" viewBox="0 0 115 115" enable-background="new 0 0 115 115" xml:space="preserve">
<g id="Layer_4">
	<line fill="none" x1="96.746" y1="43.649" x2="89.352" y2="40.672"/>
	<polygon fill="#3E1CE7" points="39.166,4.287 75.93,4.287 95.445,15.329 113.953,47.236 113.953,68.655 95.375,100.737 
		76.432,111.702 39.166,111.435 21.067,101.128 2.355,68.735 2.355,47.619 20.925,15.261 	"/>
	<polygon fill="#3E7EFF" points="113.953,68.655 88.99,40.721 57.965,57.859 57.902,93.556 95.375,100.737 	"/>
	<polygon fill="#20C7FF" points="26.813,40.068 2.355,68.735 21.067,101.128 57.902,93.556 57.965,57.859 	"/>
	<polygon fill="#7FF3FF" points="57.965,57.859 88.99,40.721 76.184,4.287 39.421,4.287 26.813,40.068 	"/>
</g>
</svg>
