<?xml version="1.0" encoding="utf-8"?>
<!-- Generator: Adobe Illustrator 14.0.0, SVG Export Plug-In . SVG Version: 6.00 Build 43363)  -->
<!DOCTYPE svg PUBLIC "-//W3C//DTD SVG 1.1//EN" "http://www.w3.org/Graphics/SVG/1.1/DTD/svg11.dtd">
<svg version="1.1" xmlns="http://www.w3.org/2000/svg" xmlns:xlink="http://www.w3.org/1999/xlink" x="0px" y="0px"
	 width="114.167px" height="114.167px" viewBox="0 0 114.167 114.167" enable-background="new 0 0 114.167 114.167"
	 xml:space="preserve">
<g id="Layer_1" display="none">
	<circle display="inline" fill="#006837" stroke="#000000" stroke-width="0.5" cx="64.167" cy="64.167" r="10"/>
	<circle display="inline" fill="#006837" stroke="#000000" stroke-width="0.5" cx="64.167" cy="84.167" r="10"/>
	<circle display="inline" fill="#006837" stroke="#000000" stroke-width="0.5" cx="64.167" cy="44.167" r="10"/>
	<circle display="inline" fill="#006837" stroke="#000000" stroke-width="0.5" cx="46.792" cy="54.167" r="10"/>
	<circle display="inline" fill="#006837" stroke="#000000" stroke-width="0.5" cx="81.417" cy="54.167" r="10"/>
	<circle display="inline" fill="#006837" stroke="#000000" stroke-width="0.5" cx="81.417" cy="74.167" r="10"/>
	<circle display="inline" fill="#006837" stroke="#000000" stroke-width="0.5" cx="46.792" cy="74.167" r="10"/>
	<line display="inline" fill="none" stroke="#000000" stroke-width="0.5" x1="21.366" y1="89.167" x2="107.967" y2="39.166"/>
	<line display="inline" fill="none" stroke="#000000" stroke-width="0.5" x1="64.167" y1="14.167" x2="64.167" y2="114.167"/>
	<line display="inline" fill="none" stroke="#000000" stroke-width="0.5" x1="107.467" y1="89.245" x2="20.866" y2="39.244"/>
	<circle display="inline" fill="#006837" stroke="#000000" stroke-width="0.5" cx="98.675" cy="84.167" r="10"/>
	<circle display="inline" fill="#006837" stroke="#000000" stroke-width="0.5" cx="29.509" cy="44.167" r="10"/>
	<circle display="inline" fill="#006837" stroke="#000000" stroke-width="0.5" cx="64.167" cy="24.167" r="10"/>
	<circle display="inline" fill="#006837" stroke="#000000" stroke-width="0.5" cx="64.167" cy="104.167" r="10"/>
	<circle display="inline" fill="#006837" stroke="#000000" stroke-width="0.5" cx="29.592" cy="84.417" r="10"/>
	<circle display="inline" fill="#006837" stroke="#000000" stroke-width="0.5" cx="98.966" cy="44.375" r="10"/>
</g>
<g id="Layer_2" display="none">
	<polygon display="inline" fill="none" stroke="#3FFF7F" stroke-width="0.5" points="98.967,84.167 29.592,84.417 64.167,24.167 	
		"/>
	<polygon display="inline" fill="none" stroke="#3FFF7F" stroke-width="0.5" points="29.509,44.167 98.967,44.375 64.167,104.167 	
		"/>
	<polyline display="inline" fill="none" stroke="#3FFF7F" stroke-width="0.5" points="98.967,44.375 46.917,54.167 64.167,104.167 
		81.417,54.375 29.509,44.167 64.28,84.292 98.675,44.429 	"/>
	<polygon display="inline" fill="none" stroke="#3FFF7F" stroke-width="0.5" points="98.967,84.167 64.042,44.042 29.592,84.417 
		81.627,74.167 63.881,24.665 46.792,74.167 	"/>
</g>
<g id="Layer_3">
</g>
<g id="Layer_4">
	<g>
		<polygon fill="#865F63" points="38.125,3.447 74.887,3.447 94.405,14.489 112.909,46.397 112.909,67.816 95.027,100.269 
			76.085,111.234 38.821,110.966 20.026,100.288 1.314,67.896 1.314,46.779 19.884,14.42 		"/>
		<polygon fill="#FF7BAC" points="56.924,57.341 87.949,40.202 74.889,3.768 38.125,3.768 25.772,39.55 		"/>
		<polygon fill="#C27BAC" points="56.506,57.195 25.772,39.642 56.924,24.451 		"/>
		<polygon fill="none" points="56.924,24.36 74.889,3.768 38.125,3.768 		"/>
		<polygon fill="none" points="25.772,39.55 56.924,24.36 38.125,3.768 		"/>
		<polygon fill="#C27BAC" points="87.949,40.202 66.02,38.2 56.861,57.103 		"/>
		<polygon fill="none" points="56.987,24.543 65.896,38.287 56.861,57.103 		"/>
		<polygon fill="none" points="74.889,3.768 71.156,21.985 57.112,24.457 		"/>
		<polygon fill="#C27BAC" points="87.949,40.202 71.156,21.985 74.889,3.768 		"/>
		<polygon fill="#FFCFD4" points="25.772,39.55 47.38,39.263 56.924,24.36 		"/>
		<polygon fill="#FF7BAC" points="56.861,57.103 47.38,39.263 56.924,24.36 		"/>
		<polygon fill="#C27BAC" points="74.889,3.768 56.861,12.418 38.125,3.768 		"/>
		<polygon fill="#FFCFD4" points="57.112,24.457 56.861,12.418 74.889,3.768 		"/>
		<polygon fill="#C27BAC" points="25.772,39.55 41.349,21.181 38.125,3.768 		"/>
		<polygon fill="#FFCFD4" points="57.112,24.457 56.924,24.415 41.349,21.181 38.125,3.768 		"/>
		<polygon fill="none" points="87.949,40.202 56.924,24.36 74.889,3.768 		"/>
		<polygon fill="#FFCFD4" points="56.924,24.543 56.861,57.103 65.896,38.287 		"/>
		<polygon fill="#FFCFD4" points="87.949,40.202 56.924,24.36 71.156,21.985 		"/>
		<polygon fill="#FF7BAC" points="56.778,57.331 26.423,39.032 1.403,68.562 19.784,100.395 56.951,93.205 		"/>
		<polygon fill="#C27BAC" points="56.862,57.765 57.029,93.159 28.296,73.773 		"/>
		<polygon fill="none" points="28.218,73.822 1.403,68.562 19.784,100.395 		"/>
		<polygon fill="none" points="56.951,93.205 28.218,73.822 19.784,100.395 		"/>
		<polygon fill="#C27BAC" points="26.423,39.032 35.658,59.023 56.605,57.504 		"/>
		<polygon fill="none" points="28.343,73.675 35.793,59.088 56.605,57.504 		"/>
		<polygon fill="none" points="1.403,68.562 19.046,62.684 28.207,73.609 		"/>
		<polygon fill="#C27BAC" points="26.423,39.032 19.046,62.684 1.403,68.562 		"/>
		<polygon fill="#FFCFD4" points="56.951,93.205 45.891,74.635 28.218,73.822 		"/>
		<polygon fill="#FF7BAC" points="56.605,57.504 45.891,74.635 28.218,73.822 		"/>
		<polygon fill="#C27BAC" points="1.403,68.562 17.909,79.844 19.784,100.395 		"/>
		<polygon fill="#FFCFD4" points="28.207,73.609 17.909,79.844 1.403,68.562 		"/>
		<polygon fill="#C27BAC" points="56.951,93.205 33.251,88.9 19.784,100.395 		"/>
		<polygon fill="#FFCFD4" points="28.207,73.609 28.267,73.792 33.251,88.9 19.784,100.395 		"/>
		<polygon fill="none" points="26.423,39.032 28.218,73.822 1.403,68.562 		"/>
		<polygon fill="#FFCFD4" points="28.375,73.729 56.605,57.504 35.793,59.088 		"/>
		<polygon fill="#FFCFD4" points="26.423,39.032 28.218,73.822 19.046,62.684 		"/>
		<polygon fill="#FF7BAC" points="57.086,57.981 56.861,93.036 94.499,100.323 112.879,68.487 88.068,39.895 		"/>
		<polygon fill="#C27BAC" points="57.419,57.692 87.986,39.849 85.567,74.427 		"/>
		<polygon fill="none" points="85.649,74.47 94.499,100.323 112.879,68.487 		"/>
		<polygon fill="none" points="88.068,39.895 85.649,74.47 112.879,68.487 		"/>
		<polygon fill="#C27BAC" points="56.417,93.417 69.113,75.424 57.322,58.044 		"/>
		<polygon fill="none" points="85.458,74.437 69.099,75.275 57.322,58.044 		"/>
		<polygon fill="none" points="94.499,100.323 80.589,87.98 85.467,74.584 		"/>
		<polygon fill="#C27BAC" points="56.861,93.036 80.589,87.98 94.499,100.323 		"/>
		<polygon fill="#FFCFD4" points="88.068,39.895 77.515,58.756 85.649,74.47 		"/>
		<polygon fill="#FF7BAC" points="57.322,58.044 77.515,58.756 85.649,74.47 		"/>
		<polygon fill="#C27BAC" points="94.499,100.323 96.018,80.386 112.879,68.487 		"/>
		<polygon fill="#FFCFD4" points="85.467,74.584 96.018,80.386 94.499,100.323 		"/>
		<polygon fill="#C27BAC" points="88.068,39.895 96.19,62.569 112.879,68.487 		"/>
		<polygon fill="#FFCFD4" points="85.467,74.584 85.598,74.441 96.19,62.569 112.879,68.487 		"/>
		<polygon fill="none" points="56.861,93.036 85.649,74.47 94.499,100.323 		"/>
		<polygon fill="#FFCFD4" points="85.49,74.378 57.322,58.044 69.099,75.275 		"/>
		<polygon fill="#FFCFD4" points="56.417,93.417 85.649,74.47 80.589,87.98 		"/>
		<line fill="#B77B80" x1="95.704" y1="43.131" x2="88.311" y2="40.154"/>
		<g>
			<polygon fill="#6A5254" points="58.277,103.43 63.633,99.079 57.029,93.159 			"/>
			<polygon fill="#6A5254" points="20.324,100.778 58.277,103.198 50.949,98.54 			"/>
			<polygon fill="#6A5254" points="38.368,110.917 58.277,103.198 42.411,105.178 			"/>
			<polygon fill="#6A5254" points="75.39,111.183 58.277,103.198 58.247,108.05 			"/>
			<path fill="#6A5254" d="M94.967,100.607c-0.318-0.044-36.69,2.591-36.69,2.591l16.645,2.827L94.967,100.607z"/>
			<polygon fill="#B77B80" points="63.633,99.079 95.086,100.537 58.277,103.198 			"/>
			<polygon fill="#B77B80" points="74.922,106.025 75.39,111.183 58.277,103.198 			"/>
			<polygon fill="#B77B80" points="58.247,108.05 38.586,110.832 58.277,103.198 			"/>
			<polygon fill="#B77B80" points="42.411,105.178 20.324,100.778 58.277,103.198 			"/>
			<polygon fill="#B77B80" points="51.061,98.54 56.973,93.036 58.39,103.198 			"/>
		</g>
		<g>
			<polygon fill="#6A5254" points="96.498,34.198 90.05,31.737 88.225,40.414 			"/>
			<polygon fill="#6A5254" points="113.176,68.393 96.296,34.314 95.926,42.99 			"/>
			<polygon fill="#6A5254" points="112.937,47.697 96.296,34.314 105.945,47.065 			"/>
			<polygon fill="#6A5254" points="94.656,15.501 96.296,34.314 100.515,31.915 			"/>
			<path fill="#6A5254" d="M75.708,3.836c0.122,0.296,20.589,30.478,20.589,30.478l-5.874-15.829L75.708,3.836z"/>
			<polygon fill="#B77B80" points="90.05,31.737 75.588,3.768 96.296,34.314 			"/>
			<polygon fill="#B77B80" points="90.422,18.485 94.656,15.501 96.296,34.314 			"/>
			<polygon fill="#B77B80" points="100.515,31.915 112.755,47.551 96.296,34.314 			"/>
			<polygon fill="#B77B80" points="105.945,47.065 113.176,68.393 96.296,34.314 			"/>
			<polygon fill="#B77B80" points="95.872,42.893 88.148,40.525 96.241,34.217 			"/>
		</g>
		<g>
			<polygon fill="#6A5254" points="17.67,33.877 24.116,31.417 25.941,40.093 			"/>
			<polygon fill="#6A5254" points="0.99,68.073 17.871,33.994 18.24,42.669 			"/>
			<polygon fill="#6A5254" points="1.229,47.376 17.871,33.994 8.222,46.745 			"/>
			<polygon fill="#6A5254" points="19.511,15.181 17.871,33.994 13.651,31.595 			"/>
			<path fill="#6A5254" d="M38.459,3.516c-0.122,0.296-20.588,30.478-20.588,30.478l5.874-15.829L38.459,3.516z"/>
			<polygon fill="#B77B80" points="24.116,31.417 38.578,3.447 17.871,33.994 			"/>
			<polygon fill="#B77B80" points="23.745,18.165 19.511,15.181 17.871,33.994 			"/>
			<polygon fill="#B77B80" points="13.651,31.595 1.413,47.23 17.871,33.994 			"/>
			<polygon fill="#B77B80" points="8.222,46.745 0.99,68.073 17.871,33.994 			"/>
			<polygon fill="#B77B80" points="18.297,42.573 26.019,40.205 17.927,33.896 			"/>
		</g>
		<polygon fill="none" stroke="#1D1019" stroke-width="0.5" points="38.125,3.768 74.889,3.768 94.405,14.81 112.911,46.718 
			112.911,68.137 94.333,100.218 75.39,111.183 38.125,110.916 20.026,100.609 1.314,68.216 1.314,47.1 19.884,14.742 		"/>
		<polygon fill="none" stroke="#1D1019" stroke-width="0.5" points="112.911,68.137 87.949,40.202 56.924,57.341 56.861,93.036 
			94.333,100.218 		"/>
		<polygon fill="none" stroke="#1D1019" stroke-width="0.5" points="25.772,39.55 1.314,68.216 20.026,100.609 56.861,93.036 
			56.924,57.341 		"/>
		<polygon fill="none" stroke="#1D1019" stroke-width="0.5" points="57.178,57.341 88.202,40.202 75.142,3.768 38.38,3.768 
			26.025,39.55 		"/>
	</g>
</g>
</svg>
